<svg xmlns="http://www.w3.org/2000/svg" viewBox="0 0 400 252" width="400" height="252">
  <defs>
    <linearGradient id="vxbBg" x1="0%" y1="0%" x2="100%" y2="100%">
      <stop offset="0%" stop-color="#18243A"/>
      <stop offset="100%" stop-color="#0A1220"/>
    </linearGradient>
    <radialGradient id="vxbSheen" cx="25%" cy="30%" r="65%">
      <stop offset="0%" stop-color="#2A3E66" stop-opacity="0.5"/>
      <stop offset="100%" stop-color="#0A1220" stop-opacity="0"/>
    </radialGradient>
  </defs>
  <rect width="400" height="252" rx="16" fill="url(#vxbBg)"/>
  <rect width="400" height="252" rx="16" fill="url(#vxbSheen)"/>
  <!-- Star-field -->
  <g opacity="0.5">
    <circle cx="310" cy="38" r="1.8" fill="#90AAD8"/>
    <circle cx="345" cy="65" r="1.2" fill="#90AAD8"/>
    <circle cx="375" cy="28" r="1.5" fill="#90AAD8"/>
    <circle cx="292" cy="78" r="1" fill="#90AAD8"/>
    <circle cx="388" cy="55" r="2" fill="#90AAD8"/>
    <circle cx="360" cy="95" r="1.2" fill="#90AAD8"/>
    <circle cx="325" cy="115" r="0.9" fill="#90AAD8"/>
    <circle cx="382" cy="125" r="1.4" fill="#90AAD8"/>
  </g>
  <!-- Diagonal accent -->
  <line x1="220" y1="0" x2="400" y2="140" stroke="#3A5AAA" stroke-width="1" opacity="0.25"/>
  <!-- Capital One logo mark -->
  <g transform="translate(28, 28)">
    <path d="M14 9 C14 5.69 11.31 3 8 3 C4.69 3 2 5.69 2 9 C2 12.31 4.69 15 8 15 C9.5 15 10.87 14.43 11.9 13.5" stroke="white" stroke-width="2.2" fill="none" stroke-linecap="round"/>
    <path d="M18 9 C18 12.31 20.69 15 24 15 C27.31 15 30 12.31 30 9 C30 5.69 27.31 3 24 3 C22.5 3 21.13 3.57 20.1 4.5" stroke="white" stroke-width="2.2" fill="none" stroke-linecap="round"/>
  </g>
  <!-- VENTURE X BUSINESS wordmark -->
  <text x="28" y="175" font-family="system-ui, -apple-system, sans-serif" font-size="20" font-weight="700" fill="white" letter-spacing="3" opacity="0.95">VENTURE X</text>
  <text x="28" y="195" font-family="system-ui" font-size="10" font-weight="400" fill="rgba(144,170,216,0.7)" letter-spacing="5">BUSINESS</text>
  <!-- Card number dots -->
  <text x="28" y="222" font-family="monospace" font-size="11" fill="rgba(144,170,216,0.35)" letter-spacing="3">•••• •••• •••• ••••</text>
</svg>
